<?xml version="1.0" standalone="no"?>
<!DOCTYPE svg PUBLIC "-//W3C//DTD SVG 1.1//EN" "http://www.w3.org/Graphics/SVG/1.1/DTD/svg11.dtd">
<svg xmlns="http://www.w3.org/2000/svg" width="251" height="251" viewBox="0 0 251 251" fill="none">
<g clip-path="url(#clip0_5444_89)">
<path d="M125.306 -0.000965608C56.1013 -0.000971658 3.22634e-05 56.1003 2.62134e-05 125.305C2.01633e-05 194.509 56.1013 250.61 125.306 250.61C194.51 250.61 250.611 194.509 250.611 125.305C250.611 56.1003 194.51 -0.000959558 125.306 -0.000965608Z" fill="#FBF3CC"/>
<path d="M125.306 56.8135C87.4785 56.8135 56.8135 87.4785 56.8135 125.306C56.8135 163.133 87.4785 193.798 125.306 193.798C163.133 193.798 193.798 163.133 193.798 125.306C193.798 87.4785 163.133 56.8135 125.306 56.8135Z" fill="#F9BF29"/>
<path d="M125.307 17.2089C65.6064 17.2089 17.2099 65.6054 17.2099 125.306C17.2099 185.006 65.6064 233.402 125.307 233.402C185.007 233.402 233.403 185.006 233.403 125.306C233.403 65.6054 185.007 17.2089 125.307 17.2089Z" stroke="#F9BF29" stroke-width="3.43491" stroke-miterlimit="10"/>
</g>
<defs>
<clipPath id="clip0_5444_89">
<rect width="250.611" height="250.611" fill="white" transform="translate(250.611 250.611) rotate(-180)"/>
</clipPath>
</defs>
</svg>