<?xml version="1.0" standalone="no"?>
<!DOCTYPE svg PUBLIC "-//W3C//DTD SVG 1.1//EN" "http://www.w3.org/Graphics/SVG/1.1/DTD/svg11.dtd">
<svg xmlns="http://www.w3.org/2000/svg" width="147" height="79" viewBox="0 0 147 79" fill="none">
<path d="M145.35 57.3279C137.884 51.3729 131.707 39.1518 131.663 39.0185C131.351 38.3519 130.64 37.9075 129.885 37.9075H124.285C120.108 34.219 114.153 26.3975 108.331 18.8426C103.443 12.4433 98.8212 6.44383 95.4438 3.06637C95.266 2.31089 94.5994 1.73317 93.8439 1.59985C92.4663 0.488842 91.3997 0 90.3776 0C87.0001 0 84.7781 2.53309 83.9337 4.13294C81.5784 7.59928 76.4678 12.0433 74.3347 13.8653L72.3349 12.8432C71.3572 12.3544 70.1573 12.7543 69.6684 13.732C68.6908 15.6874 60.2916 26.0864 54.2477 33.419C49.537 26.753 44.7375 25.2865 41.4045 25.2865C37.4937 25.2865 33.4052 32.4858 31.8054 35.7299C19.5399 54.1282 0.96387 68.1713 0.786109 68.349C0.208387 68.7934 -0.102695 69.5045 0.0306258 70.2155C0.119506 70.9266 0.608349 71.5487 1.27495 71.7709C3.85248 72.7486 6.38558 73.2375 8.78535 73.2375C15.9402 73.2375 20.2954 69.0601 21.8952 67.1936H26.3392C34.5607 76.526 45.4485 78.1703 45.9374 78.2148C46.0262 78.2148 46.1151 78.2148 46.204 78.2148C49.9814 78.2148 52.1146 77.2815 53.1811 76.6149H63.5801C64.2023 76.6149 64.8245 76.3038 65.18 75.815C65.5355 75.2817 65.6688 74.6596 65.4466 74.0374C63.5801 68.4824 57.0919 67.9935 55.8475 67.9491C51.9368 67.238 48.8704 64.2161 46.7817 61.2831C49.8481 62.3941 52.3368 62.3941 52.5145 62.3941C53.3144 62.3941 54.0255 61.9052 54.3366 61.1942C54.6476 60.4387 54.4699 59.5943 53.8922 59.061C42.6488 47.8177 40.4712 37.8186 40.249 36.6187C40.249 35.7299 40.4268 34.9744 40.649 34.3967C49.4481 56.8835 83.3116 72.6153 84.8225 73.3264C85.0892 73.4597 85.3558 73.5041 85.6669 73.5041H109.354C110.331 73.5041 111.176 72.7486 111.309 71.7709C111.442 70.7933 110.776 69.86 109.842 69.5934C105.043 68.3935 96.2437 61.5053 93.2662 58.9722C92.4663 58.3056 91.3108 58.35 90.5998 59.061C87.5778 62.083 85.6225 62.7051 84.5115 62.7051C82.8672 62.7051 81.8895 61.1942 81.4451 60.3498C82.8672 55.5058 82.9116 49.6397 82.9116 49.3731C82.9116 48.4398 82.2895 47.6399 81.4007 47.4621C81.4007 47.4621 81.3118 47.4621 81.2673 47.4621C83.8449 44.2625 85.8891 41.1961 87.2668 39.0185C92.4663 45.5068 103.665 48.0399 104.198 48.1732C105.132 48.351 106.065 47.9065 106.465 47.0177C106.82 46.1289 106.554 45.1068 105.754 44.618C98.8657 40.0406 93.0884 20.8425 91.0886 12.3099C92.1552 11.4211 92.9995 10.4435 93.6217 9.46577C99.3989 22.0423 114.82 41.3294 121.93 49.8619C122.952 51.3284 124.108 52.7061 125.396 53.9504C125.796 54.3504 126.285 54.5281 126.774 54.5281C127.885 54.5281 128.729 53.6393 128.729 52.5728C128.729 51.9506 128.463 51.4173 128.018 51.0618C127.618 50.573 126.552 49.3731 125.085 47.551C130.907 52.7505 141.573 59.5943 143.039 60.5276C143.928 61.1053 145.083 60.8831 145.706 59.9943C146.328 59.1499 146.15 57.95 145.35 57.2834V57.3279Z" fill="#5D57C5"/>
</svg>