<?xml version="1.0" standalone="no"?>
<!DOCTYPE svg PUBLIC "-//W3C//DTD SVG 1.1//EN" "http://www.w3.org/Graphics/SVG/1.1/DTD/svg11.dtd">
<svg xmlns="http://www.w3.org/2000/svg" width="366" height="79" viewBox="0 0 366 79" fill="none">
<g clip-path="url(#clip0_5444_74)">
<path d="M24.7277 35.7604C19.3618 44.1282 -0.000426997 75.573 -0.000426997 75.573L22.9265 69.4941C74.5591 55.7605 126.154 62.6273 180.751 69.8694C212.571 74.1096 244.991 78.4248 277.787 78.4248C302.14 78.4248 326.68 76.0608 351.333 69.4942L362.253 66.6049C362.253 66.6049 346.305 49.0813 341.202 43.1526C346.568 34.5972 365.743 2.88972 365.743 2.88972L343.041 8.93101C291.408 22.6647 239.813 15.7978 185.216 8.55576C129.794 1.20113 72.4577 -6.41618 14.6338 8.93098L3.86451 11.7828C3.86451 11.7828 19.662 29.644 24.8027 35.7604L24.7277 35.7604Z" fill="#F04D26"/>
</g>
<defs>
<clipPath id="clip0_5444_74">
<rect width="365.705" height="78.4244" fill="white" transform="translate(365.705 78.4248) rotate(-180)"/>
</clipPath>
</defs>
</svg>