<?xml version="1.0" standalone="no"?>
<!DOCTYPE svg PUBLIC "-//W3C//DTD SVG 1.1//EN" "http://www.w3.org/Graphics/SVG/1.1/DTD/svg11.dtd">
<svg xmlns="http://www.w3.org/2000/svg" width="423" height="167" viewBox="0 0 423 167" fill="none">
<g clip-path="url(#clip0_5355_4003)">
<path d="M423 12.6906V3.98643C420.872 3.98643 418.93 2.28001 418.93 0H410.821C410.821 2.95398 408.275 4.24455 406.032 3.92907C406.018 3.91473 406.003 3.91473 405.975 3.91473C404.22 3.62794 402.653 2.32303 402.653 0.0143397H394.615C394.615 2.53812 392.76 3.85738 390.833 3.95775C390.603 3.97209 390.373 3.97209 390.157 3.95775C388.23 3.85738 386.375 2.53812 386.375 0.0143397H378.337C378.337 2.53812 376.482 3.85738 374.541 3.95775C374.311 3.97209 374.095 3.97209 373.865 3.95775C371.924 3.85738 370.069 2.52379 370.069 0.0143397H362.045C362.045 2.50945 360.19 3.85738 358.264 3.95775C358.019 3.97209 357.818 3.97209 357.573 3.95775C355.632 3.85738 353.777 2.52379 353.777 0.0143397H345.768C345.768 2.50945 343.913 3.85738 341.972 3.95775C341.742 3.97209 341.526 3.97209 341.281 3.95775C339.355 3.85738 337.514 2.53812 337.514 0.0143397H329.476C329.476 2.53812 327.621 3.85738 325.694 3.95775C325.464 3.97209 325.234 3.97209 325.018 3.95775C323.077 3.85738 321.222 2.53812 321.222 0.0143397H313.198C313.198 2.53812 311.344 3.85738 309.417 3.95775C309.187 3.97209 308.957 3.97209 308.726 3.95775C306.8 3.85738 304.945 2.52379 304.945 0.0143397H296.907C296.907 2.53812 295.052 3.85738 293.11 3.95775C292.866 3.97209 292.636 3.98643 292.391 3.95775C292.291 3.95775 292.161 3.95775 292.061 3.94341C292.046 3.92907 292.003 3.92907 291.974 3.92907C290.22 3.64228 288.653 2.33737 288.653 0.0286794H280.643C280.643 1.01812 280.356 1.82114 279.867 2.43775C279.407 3.06869 278.745 3.49888 278.026 3.74266C277.638 3.88606 277.221 3.97209 276.818 3.97209C276.718 3.97209 276.617 3.98643 276.488 3.98643C276.387 3.98643 276.301 3.97209 276.186 3.97209C276.071 3.97209 275.956 3.97209 275.855 3.95775C275.826 3.95775 275.783 3.94341 275.769 3.94341C273.986 3.6853 272.361 2.38039 272.361 0.0430191H264.438C264.438 2.43775 262.755 3.74266 260.9 3.97209C260.8 3.98643 260.656 3.98643 260.555 3.98643C260.311 4.00077 260.11 4.00077 259.908 3.98643C259.822 3.98643 259.721 3.98643 259.635 3.97209C257.766 3.77134 256.083 2.46643 256.083 0.0430191H248.175C248.175 2.58114 246.32 3.9004 244.364 3.98643H244.263C244.076 4.00077 243.904 4.00077 243.717 3.98643H243.616C241.675 3.9004 239.82 2.58114 239.82 0.0430191H231.897C231.897 2.58114 230.028 3.9004 228.087 3.98643H228C227.813 4.00077 227.612 4.00077 227.439 3.98643H227.209C227.123 3.98643 227.037 3.97209 226.951 3.92907C226.749 3.91473 226.562 3.87172 226.361 3.81436C226.174 3.74266 225.973 3.69964 225.8 3.6136C224.506 3.06869 223.528 1.8785 223.528 0.0430191H215.605C215.605 2.58114 213.736 3.88606 211.809 3.98643H211.723C211.521 4.00077 211.335 4.00077 211.162 3.98643H211.076C209.134 3.88606 207.251 2.5668 207.251 0.0430191H199.342C199.342 1.8785 198.364 3.05435 197.07 3.6136C196.898 3.69964 196.711 3.757 196.509 3.81436C196.322 3.88606 196.15 3.91473 195.949 3.92907C195.862 3.94341 195.776 3.95775 195.675 3.98643H195.445C195.258 4.00077 195.057 4.00077 194.884 3.98643H194.813C192.843 3.9004 190.988 2.58114 190.988 0.0430191H183.065C183.065 2.45209 181.382 3.757 179.542 3.97209C179.427 3.98643 179.283 3.98643 179.182 3.98643C178.952 4.00077 178.751 4.00077 178.535 3.98643C178.449 3.98643 178.348 3.98643 178.262 3.97209C176.407 3.77134 174.724 2.46643 174.724 0.0430191H166.801C166.801 2.58114 164.946 3.9004 163.005 3.98643H162.905C162.718 4.00077 162.545 4.00077 162.358 3.98643H162.257C160.302 3.9004 158.447 2.58114 158.447 0.0430191H150.538C150.538 2.40907 148.928 3.71398 147.116 3.94341C147.116 3.94341 147.106 3.94819 147.087 3.95775C147.087 3.95775 147.073 3.95775 147.058 3.95775C146.454 4.04379 145.822 4.01511 145.232 3.85738C145.117 3.8287 144.988 3.80002 144.873 3.757C144.758 3.72832 144.628 3.67096 144.513 3.6136C143.248 3.06869 142.256 1.86416 142.256 0.0286794H134.246C134.246 2.33737 132.693 3.64228 130.925 3.92907C130.91 3.92907 130.867 3.92907 130.853 3.94341C130.752 3.95775 130.666 3.95775 130.565 3.95775C130.306 3.97209 130.048 3.98643 129.789 3.95775C127.848 3.85738 126.007 2.53812 126.007 0.0143397H117.969C117.969 2.53812 116.114 3.85738 114.173 3.95775C113.971 3.97209 113.727 3.97209 113.526 3.95775C111.584 3.85738 109.729 2.52379 109.729 0.0143397H101.691C101.691 2.50945 99.8364 3.85738 97.8951 3.95775C97.6651 3.97209 97.4494 3.97209 97.2193 3.95775C95.2781 3.85738 93.4231 2.52379 93.4231 0.0143397H85.3994C85.3994 2.50945 83.5588 3.85738 81.6176 3.95775C81.3875 3.97209 81.1718 3.97209 80.9274 3.95775C78.9862 3.84304 77.1456 2.52379 77.1456 0.0143397H69.1219C69.1219 2.53812 67.2813 3.85738 65.3401 3.95775C65.0956 3.97209 64.8799 3.97209 64.6499 3.95775C62.723 3.85738 60.8681 2.53812 60.8681 0.0143397H52.8443C52.8443 2.53812 50.9894 3.85738 49.0482 3.95775C48.8181 3.97209 48.6024 3.97209 48.3723 3.95775C46.4311 3.85738 44.5762 2.53812 44.5762 0.0143397H36.5668C36.5668 2.53812 34.7119 3.85738 32.7706 3.95775C32.5406 3.97209 32.3105 3.97209 32.0804 3.95775C30.1536 3.85738 28.2986 2.52379 28.2986 0.0143397H20.2605C20.2605 2.15095 18.9232 3.42719 17.3271 3.8287H17.3127C17.169 3.85738 17.0539 3.9004 16.9245 3.91473C16.9101 3.92907 16.8957 3.92907 16.8526 3.92907C14.6382 4.21587 12.1218 2.9253 12.1218 0H4.0549C4.0549 2.25133 2.21433 3.98643 -9.94314e-05 3.98643V12.6906C2.70324 12.6906 4.0549 14.6982 4.0549 16.7057C4.04052 16.9782 4.02614 17.2506 3.96863 17.5088C3.7098 18.8567 2.80389 20.0899 1.23653 20.5058C1.22215 20.5201 1.17901 20.5344 1.15026 20.5344C1.0496 20.5631 0.920185 20.5918 0.805149 20.6061L0.488802 20.6635C0.316248 20.6778 0.158074 20.6922 -0.0144789 20.6922V29.382C1.16464 29.382 2.08492 29.7549 2.74637 30.3715C2.84703 30.4575 2.94769 30.5435 3.01958 30.6439C3.72418 31.4183 4.0549 32.4364 4.04052 33.4545C4.04052 33.5549 4.04052 33.6409 4.02614 33.7413C4.02614 33.8847 4.01176 33.9994 3.96863 34.1141C3.88235 34.702 3.68104 35.2326 3.35031 35.7058C3.27841 35.8062 3.20652 35.9066 3.10586 36.0213C2.87579 36.3081 2.5882 36.5662 2.25747 36.7526C2.0993 36.8673 1.92675 36.9534 1.73981 37.0394C1.72543 37.0538 1.68229 37.0538 1.66792 37.0538C1.65354 37.0681 1.63916 37.0824 1.6104 37.0824C1.09274 37.3262 0.546319 37.4409 -0.0432377 37.4409V46.0447C0.460043 46.0447 0.920185 46.1308 1.33719 46.2742C1.75419 46.3889 2.12806 46.5896 2.43003 46.8191C2.53068 46.8764 2.63134 46.9625 2.71761 47.0629C2.81827 47.1346 2.91893 47.2349 2.99082 47.3353C3.09148 47.4213 3.17776 47.5217 3.23527 47.6221C3.32155 47.7081 3.37907 47.8085 3.40783 47.8946C3.52286 48.0666 3.60914 48.2531 3.68104 48.4251C3.76731 48.6259 3.83921 48.841 3.88235 49.0561C3.93987 49.2998 3.96863 49.5149 3.98301 49.7587C3.99738 49.9882 3.99738 50.2032 3.98301 50.4327C3.96863 50.6048 3.95425 50.7482 3.91111 50.8916C3.91111 50.9776 3.89673 51.078 3.85359 51.164C3.83921 51.2787 3.79607 51.4078 3.73855 51.5225C3.27841 52.9565 1.98426 54.1323 -0.0576172 54.1323V62.7361C0.445663 62.7361 0.905805 62.8222 1.32281 62.9656C1.73981 63.0803 2.11368 63.281 2.41565 63.5105C2.5163 63.5678 2.61696 63.6539 2.70324 63.7543C2.80389 63.8259 2.90455 63.9263 2.97644 64.0267C3.0771 64.1127 3.16338 64.2131 3.22089 64.3135C3.30717 64.3995 3.36469 64.4999 3.39345 64.586C3.50848 64.758 3.59476 64.9444 3.66666 65.1165C3.75293 65.3173 3.82483 65.5324 3.86797 65.7475C3.92549 65.9912 3.95425 66.2063 3.96863 66.4501C3.98301 66.6939 3.98301 66.952 3.96863 67.2101C3.95425 67.4396 3.89673 67.6546 3.85359 67.8841C3.83921 68.0275 3.79607 68.1422 3.73855 68.2426C3.27841 69.6765 1.98426 70.8524 -0.0576172 70.8524V79.4705C0.114936 79.4705 0.287489 79.4705 0.445663 79.4992C0.603837 79.4992 0.762011 79.5279 0.891426 79.5709C1.03522 79.5853 1.16464 79.6283 1.30843 79.6713C1.4666 79.7 1.59602 79.7573 1.72543 79.829C1.82609 79.8577 1.92675 79.9151 2.0274 79.9868C2.18558 80.0585 2.31499 80.1445 2.45878 80.2449C2.54506 80.3166 2.64572 80.4026 2.71761 80.4743C2.91893 80.6464 3.0771 80.8328 3.23527 81.0336C3.32155 81.177 3.40783 81.306 3.4941 81.4494C3.59476 81.6358 3.68104 81.8223 3.75293 82.0374C3.78169 82.1091 3.81045 82.1521 3.82483 82.2238C3.85359 82.3815 3.91111 82.5106 3.92549 82.6683C3.93987 82.6826 3.93987 82.7257 3.93987 82.74C4.02614 83.2132 4.02614 83.7294 3.93987 84.2313C3.91111 84.4608 3.86797 84.6472 3.79607 84.8336C3.79607 84.8336 3.79607 84.8479 3.78169 84.8623C3.78169 84.8623 3.76731 84.934 3.75293 84.9627C3.72418 85.0774 3.68104 85.1921 3.60914 85.3068C3.58038 85.4072 3.52286 85.5362 3.43659 85.6366C3.37907 85.7513 3.32155 85.8661 3.23527 85.9664C3.17776 86.0668 3.09148 86.1672 2.99082 86.2532C2.35813 87.0276 1.32281 87.5581 -0.0432377 87.5581V96.1763C0.301869 96.1763 0.603837 96.205 0.905805 96.2767C1.17901 96.3053 1.42346 96.3914 1.66792 96.5061C1.68229 96.5061 1.72543 96.5204 1.73981 96.5348C1.99864 96.6352 2.24309 96.7642 2.44441 96.9219C2.54506 96.9936 2.64572 97.0653 2.73199 97.1657C2.83265 97.2374 2.91893 97.3378 3.0052 97.4382C3.10586 97.5386 3.17776 97.6246 3.26403 97.7536C3.33593 97.8397 3.37907 97.9257 3.42221 98.0118C3.50848 98.1265 3.58038 98.2699 3.62352 98.3989C3.68104 98.485 3.7098 98.571 3.73855 98.6714C3.75293 98.6857 3.75293 98.7001 3.75293 98.7287C3.81045 98.8865 3.85359 99.0442 3.89673 99.1876C3.96863 99.4314 3.99738 99.6465 3.99738 99.8903C4.01176 100.12 4.01176 100.32 3.99738 100.536C3.98301 100.722 3.96863 100.894 3.91111 101.066C3.89673 101.267 3.83921 101.453 3.75293 101.654C3.30717 103.074 2.04178 104.235 -0.0432377 104.235V112.853C0.948944 112.868 1.79733 113.14 2.43003 113.628C2.53068 113.685 2.63134 113.771 2.71761 113.871C2.81827 113.943 2.91893 114.029 2.99082 114.144C3.09148 114.23 3.17776 114.33 3.23527 114.431C3.32155 114.517 3.37907 114.603 3.40783 114.703C3.566 114.933 3.68104 115.162 3.75293 115.42C3.81045 115.564 3.85359 115.693 3.89673 115.836C3.95425 116.065 3.98301 116.281 3.99738 116.51V116.567C4.01176 116.926 3.99738 117.284 3.93987 117.628C3.91111 117.815 3.86797 118.001 3.79607 118.188V118.216C3.79607 118.216 3.79607 118.231 3.78169 118.245C3.75293 118.403 3.69542 118.532 3.60914 118.675C3.58038 118.79 3.50848 118.919 3.43659 119.019C2.83265 120.138 1.66792 120.941 -0.0576172 120.941V129.559C1.69667 129.559 2.87579 130.419 3.4941 131.567C3.88235 132.183 4.08366 132.886 3.99738 133.531C3.99738 133.918 3.96863 134.32 3.85359 134.678C3.46535 136.27 2.15682 137.618 -0.0576172 137.647V146.293C0.416904 146.293 0.891426 146.38 1.32281 146.537C1.42347 146.552 1.50974 146.595 1.59602 146.638C1.71105 146.666 1.82609 146.724 1.92675 146.795C2.04178 146.824 2.1712 146.896 2.27185 146.982C2.50192 147.097 2.68886 147.269 2.86141 147.455C2.96207 147.527 3.04834 147.627 3.12024 147.727C3.17776 147.785 3.22089 147.842 3.27841 147.914C3.35031 147.986 3.42221 148.086 3.45097 148.172C3.89673 148.817 4.09804 149.563 4.01176 150.251C4.02614 152.273 2.68886 154.309 -0.0432377 154.324V163.042C2.41565 163.028 4.25621 165.179 4.01176 167H12.1505C11.8054 164.347 14.2787 162.885 16.5794 163.057H16.6082C16.7519 163.071 16.867 163.085 16.9964 163.128C18.7363 163.386 20.2749 164.62 20.2749 167H28.313C28.0254 164.777 29.7222 163.401 31.649 163.114C31.7641 163.085 31.8935 163.057 32.0229 163.057C34.2086 162.856 36.5812 164.175 36.5812 167H44.5905C44.5905 164.476 46.4455 163.157 48.3867 163.057C48.6168 163.042 48.8325 163.042 49.0625 163.057C51.0038 163.157 52.8587 164.491 52.8587 167H60.8824C60.8824 164.476 62.723 163.157 64.6642 163.057C64.9087 163.042 65.11 163.042 65.3545 163.057C67.2957 163.157 69.1362 164.476 69.1362 167H77.16C77.16 164.505 79.0149 163.157 80.9561 163.057C81.1862 163.042 81.4163 163.042 81.6464 163.057C83.5732 163.157 85.4138 164.476 85.4138 167H93.4375C93.4375 164.505 95.2925 163.157 97.2337 163.057C97.4637 163.042 97.6938 163.042 97.9239 163.057C99.8507 163.157 101.706 164.476 101.706 167H109.744C109.744 166.642 109.773 166.283 109.859 165.953C110.003 164.992 110.549 164.261 111.326 163.788C111.397 163.731 111.441 163.688 111.527 163.673C111.584 163.616 111.627 163.587 111.699 163.573C112.692 163.014 113.957 162.885 115.035 163.214C115.136 163.229 115.222 163.243 115.323 163.286C116.948 163.731 118.242 164.978 117.983 167H126.021C125.719 164.648 127.445 163.372 129.386 163.143C129.501 163.128 129.631 163.114 129.746 163.114C130.004 163.085 130.249 163.085 130.508 163.114C130.608 163.114 130.738 163.128 130.853 163.143C130.968 163.143 131.097 163.157 131.212 163.2C133.01 163.544 134.548 164.82 134.275 167H142.27C142.241 166.742 142.213 166.498 142.27 166.297C142.256 166.211 142.27 166.14 142.284 166.068C142.284 165.824 142.356 165.609 142.443 165.38C142.471 165.265 142.543 165.15 142.586 165.05C142.658 164.935 142.73 164.82 142.773 164.72C142.845 164.62 142.917 164.519 143.003 164.448C143.09 164.362 143.176 164.275 143.262 164.189C143.349 164.089 143.435 164.017 143.535 163.931C143.708 163.788 143.924 163.659 144.154 163.558C145.189 163.042 146.454 162.885 147.59 163.2C147.677 163.214 147.792 163.229 147.907 163.272C149.517 163.716 150.826 164.964 150.567 166.986H158.476C158.188 164.706 159.986 163.315 161.97 163.085C162.042 163.071 162.114 163.057 162.2 163.057C162.718 162.999 163.235 163.042 163.724 163.157C163.739 163.157 163.782 163.157 163.796 163.171C165.622 163.515 167.147 164.806 166.859 166.986H174.782C174.782 166.627 174.84 166.269 174.897 165.939C175.041 164.978 175.587 164.261 176.335 163.774C176.421 163.702 176.522 163.659 176.608 163.601C176.666 163.573 176.694 163.544 176.752 163.53C177.183 163.3 177.658 163.143 178.161 163.071C178.276 163.042 178.406 163.042 178.521 163.042C178.808 163.014 179.11 163.028 179.412 163.042C179.513 163.057 179.613 163.071 179.7 163.071C181.67 163.343 183.424 164.734 183.122 166.971H191.045C191.045 164.347 193.073 163.014 195.1 163.014H195.158C195.316 163.014 195.445 163.028 195.603 163.028C195.718 163.042 195.833 163.057 195.92 163.057C196.107 163.085 196.294 163.114 196.466 163.171C196.624 163.186 196.754 163.243 196.912 163.286C198.479 163.745 199.673 164.978 199.443 166.957H207.323C207.323 166.512 207.38 166.082 207.51 165.709C207.524 165.681 207.524 165.652 207.538 165.623C207.697 164.935 208.07 164.39 208.602 163.989C208.717 163.874 208.861 163.759 209.019 163.688C209.436 163.415 209.897 163.229 210.357 163.128C210.529 163.114 210.702 163.071 210.86 163.042C211.234 162.985 211.651 162.985 212.039 163.042C212.284 163.057 212.499 163.114 212.729 163.186C212.83 163.2 212.916 163.214 213.017 163.257C214.671 163.702 215.936 164.949 215.677 166.971H223.6C223.6 166.555 223.658 166.183 223.744 165.824C223.917 164.921 224.434 164.247 225.139 163.802C225.211 163.745 225.254 163.731 225.311 163.702C225.728 163.429 226.188 163.229 226.692 163.143C226.864 163.085 227.037 163.057 227.209 163.042C227.583 163.014 227.972 163.014 228.345 163.057C228.532 163.071 228.719 163.128 228.906 163.157H228.921C230.747 163.515 232.257 164.806 231.983 166.971H239.906C239.906 166.685 239.921 166.412 239.993 166.154C239.993 166.039 240.007 165.925 240.05 165.824C240.065 165.709 240.108 165.58 240.137 165.48C240.194 165.279 240.28 165.064 240.381 164.878C240.496 164.691 240.625 164.519 240.769 164.347C240.884 164.189 241.057 164.06 241.229 163.96C241.301 163.874 241.388 163.817 241.488 163.774C241.574 163.702 241.661 163.659 241.761 163.601C241.776 163.573 241.833 163.544 241.876 163.53C242.754 163.057 243.818 162.913 244.81 163.114C244.911 163.114 244.997 163.128 245.083 163.143H245.097C245.198 163.157 245.299 163.2 245.428 163.214C245.615 163.272 245.802 163.315 245.975 163.386C245.975 163.386 245.979 163.386 245.989 163.386C247.456 163.903 248.52 165.122 248.261 166.971H256.17C255.911 164.921 257.219 163.659 258.887 163.257C258.988 163.229 259.074 163.2 259.175 163.186C259.434 163.114 259.707 163.1 259.98 163.085C260.181 163.057 260.397 163.071 260.627 163.085C261.001 163.1 261.404 163.157 261.778 163.257C261.965 163.315 262.137 163.358 262.31 163.429C262.31 163.429 262.314 163.429 262.324 163.429C263.733 163.96 264.769 165.136 264.524 166.971H272.433C272.16 164.921 273.497 163.645 275.15 163.257C275.251 163.229 275.352 163.2 275.452 163.186C275.467 163.186 275.481 163.186 275.481 163.171C275.668 163.114 275.841 163.1 276.013 163.1C276.186 163.071 276.315 163.071 276.473 163.071H276.56C276.718 163.071 276.876 163.071 277.005 163.1C277.207 163.114 277.379 163.128 277.595 163.171C277.71 163.2 277.854 163.229 277.954 163.257C278.012 163.272 278.055 163.272 278.127 163.315C278.213 163.329 278.314 163.372 278.415 163.401C278.53 163.429 278.659 163.487 278.774 163.558C278.875 163.587 279.004 163.659 279.09 163.716C279.105 163.716 279.105 163.731 279.105 163.731C280.183 164.347 280.902 165.423 280.701 166.986H288.71C288.423 164.82 289.875 163.573 291.629 163.2C291.644 163.2 291.658 163.2 291.658 163.186H291.73C291.903 163.128 292.075 163.114 292.248 163.114C292.435 163.085 292.621 163.085 292.837 163.085C292.952 163.085 293.067 163.1 293.168 163.1C295.282 163.2 297.295 164.505 296.964 166.986H305.002C304.743 164.949 306.009 163.716 307.648 163.272C307.749 163.214 307.878 163.2 308.007 163.171C310.481 162.569 313.63 164.06 313.242 166.986H321.265C321.265 166.584 321.294 166.211 321.38 165.896C321.481 165.222 321.812 164.663 322.243 164.247C322.301 164.189 322.329 164.161 322.387 164.103C322.459 164.032 322.531 163.989 322.617 163.917C323.681 163.057 325.234 162.856 326.571 163.2C326.658 163.214 326.744 163.229 326.83 163.272C328.498 163.702 329.807 164.949 329.548 166.986H337.572C337.284 164.62 339.01 163.358 340.98 163.128C341.08 163.114 341.21 163.1 341.339 163.1C341.569 163.071 341.785 163.071 342.029 163.1C342.389 163.114 342.748 163.171 343.093 163.272C343.093 163.272 343.098 163.272 343.108 163.272C344.761 163.688 346.084 164.935 345.825 166.986H353.835C353.576 164.906 354.899 163.659 356.567 163.257C356.668 163.229 356.768 163.2 356.869 163.186C357.07 163.128 357.3 163.114 357.516 163.1C357.674 163.085 357.803 163.085 357.962 163.085C358.062 163.085 358.206 163.085 358.307 163.1C360.421 163.2 362.419 164.519 362.089 166.986H370.112C369.81 164.505 371.78 163.2 373.88 163.1C373.995 163.085 374.124 163.085 374.239 163.085C374.397 163.085 374.527 163.085 374.671 163.1C374.901 163.114 375.116 163.128 375.346 163.186C375.447 163.2 375.548 163.214 375.634 163.257C377.302 163.673 378.639 164.935 378.381 166.986H386.419C386.073 164.347 388.331 163.042 390.574 163.1C390.689 163.1 390.833 163.1 390.963 163.114C391.193 163.128 391.394 163.143 391.61 163.2C391.696 163.214 391.797 163.229 391.897 163.272C391.998 163.3 392.098 163.329 392.199 163.358C393.709 163.831 394.874 165.064 394.615 166.986H402.653C402.394 164.992 403.631 163.759 405.212 163.315C405.241 163.3 405.27 163.3 405.299 163.3C407.844 162.583 411.209 163.817 410.821 166.986H418.93C418.686 165.193 420.584 162.999 423 162.999V154.309C419.132 154.309 418.039 150.208 419.707 147.885C419.736 147.828 419.793 147.77 419.851 147.713C419.923 147.613 420.009 147.512 420.11 147.441C420.282 147.254 420.483 147.082 420.714 146.939C420.886 146.824 421.059 146.738 421.26 146.652C421.792 146.394 422.382 146.236 423.014 146.236V137.618C421.131 137.618 419.908 136.643 419.348 135.352C419.146 134.922 419.017 134.463 418.988 134.004C418.758 131.868 420.11 129.53 423.014 129.53V120.912C421.361 120.912 420.21 120.152 419.592 119.12C419.592 119.091 419.563 119.048 419.534 119.005C419.448 118.905 419.391 118.776 419.348 118.661C419.29 118.561 419.247 118.431 419.232 118.317C419.089 117.987 419.002 117.643 418.988 117.284C418.959 117.012 418.959 116.754 418.988 116.481V116.453C418.988 116.338 419.002 116.223 419.046 116.108V116.08C419.06 115.979 419.074 115.85 419.117 115.75C419.132 115.635 419.189 115.506 419.232 115.391C419.707 113.972 420.972 112.839 423.014 112.839V104.221C421.303 104.221 420.124 103.418 419.549 102.299C419.463 102.199 419.405 102.099 419.376 101.97C419.376 101.97 419.376 101.955 419.362 101.941C419.362 101.926 419.347 101.883 419.333 101.869C419.261 101.683 419.189 101.482 419.132 101.267C419.132 101.253 419.117 101.238 419.117 101.21C419.06 100.98 419.031 100.751 419.017 100.507C419.002 100.277 419.002 100.062 419.017 99.8329C419.017 99.7182 419.031 99.5748 419.074 99.4601C419.089 99.2593 419.146 99.0729 419.189 98.8721C419.261 98.6427 419.362 98.4133 419.463 98.1982C419.549 98.0118 419.649 97.8397 419.779 97.682C419.937 97.4525 420.11 97.2661 420.311 97.094C420.397 97.008 420.483 96.922 420.584 96.8646C420.785 96.6925 421.016 96.5778 421.274 96.4774C421.778 96.2336 422.353 96.1189 423.043 96.1189V87.5008C420.857 87.5008 419.578 86.1959 419.175 84.6328C419.117 84.4751 419.089 84.3174 419.074 84.174C418.988 83.6721 418.988 83.1702 419.074 82.6826C419.103 82.4962 419.146 82.3098 419.218 82.1234C419.232 82.066 419.247 82.023 419.276 81.9657C419.333 81.8079 419.391 81.6645 419.477 81.5068C419.477 81.4781 419.491 81.4494 419.506 81.4207C419.606 81.2343 419.707 81.0623 419.851 80.9045C419.966 80.7324 420.124 80.5604 420.297 80.4026C420.541 80.1732 420.843 79.9724 421.174 79.8147C421.274 79.7573 421.375 79.7287 421.49 79.7C421.936 79.5279 422.468 79.4275 423.057 79.4275V70.8094C421.116 70.8094 419.88 69.7626 419.362 68.4433C419.29 68.2426 419.218 68.0418 419.161 67.8411C419.161 67.8267 419.146 67.8124 419.146 67.7837C419.089 67.5543 419.06 67.3248 419.046 67.0811C419.031 66.8516 419.031 66.6365 419.046 66.4071C419.06 66.1777 419.074 65.9482 419.146 65.7188C419.204 65.475 419.261 65.2743 419.348 65.0735H419.362C419.419 64.8727 419.506 64.7007 419.621 64.5286C419.649 64.4569 419.707 64.3709 419.765 64.2992C420.052 63.869 420.455 63.4961 420.929 63.238C421.03 63.1663 421.159 63.0946 421.274 63.0659C421.389 62.9799 421.533 62.9225 421.691 62.9082C421.835 62.8365 421.965 62.8078 422.123 62.7935C422.137 62.7792 422.152 62.7792 422.18 62.7792C422.453 62.7218 422.77 62.6931 423.072 62.6931V54.0893C421.361 54.0893 420.182 53.2863 419.606 52.1678C419.506 52.0244 419.434 51.8953 419.376 51.7519C419.362 51.6659 419.319 51.5799 419.29 51.4795C419.232 51.3361 419.204 51.207 419.146 51.0923C419.089 50.8485 419.06 50.6334 419.046 50.3897C419.031 50.1602 419.031 49.9451 419.046 49.7157C419.06 49.4863 419.074 49.2568 419.146 49.0274C419.204 48.7836 419.261 48.5829 419.348 48.3821H419.362C419.419 48.1957 419.506 48.0236 419.621 47.8515C419.649 47.7655 419.721 47.6651 419.793 47.5791C419.851 47.4787 419.937 47.3783 420.038 47.2923C420.11 47.1919 420.196 47.0915 420.297 47.0198C420.397 46.9195 420.498 46.8334 420.599 46.7761C420.699 46.6757 420.8 46.604 420.929 46.5466C421.159 46.3889 421.404 46.2885 421.691 46.2168C422.108 46.0591 422.568 45.9874 423.072 45.9874V37.3836C422.511 37.3836 421.95 37.2688 421.433 37.0251C421.418 37.0251 421.418 37.0107 421.418 37.0107C420.857 36.81 420.397 36.4802 420.038 36.0643C419.951 35.9639 419.865 35.8636 419.793 35.7632C419.649 35.5911 419.534 35.4047 419.448 35.2039C419.348 35.0175 419.276 34.8168 419.204 34.5873C419.146 34.4153 419.103 34.2432 419.089 34.0711C419.089 34.0424 419.074 33.9851 419.074 33.9564C419.046 33.7556 419.017 33.5405 419.017 33.3398C419.002 32.9669 419.046 32.5798 419.161 32.2213C419.175 32.1066 419.232 31.9775 419.276 31.8628C419.376 31.5043 419.549 31.1745 419.793 30.8733C419.908 30.6726 420.081 30.4862 420.297 30.3141C420.944 29.7118 421.878 29.3247 423.057 29.3247V20.6348C422.885 20.6348 422.727 20.6205 422.554 20.6061C422.453 20.5918 422.367 20.5775 422.267 20.5488C420.857 20.3193 419.894 19.4876 419.419 18.4408C419.405 18.4265 419.405 18.3835 419.391 18.3691C418.341 16.0031 419.563 12.6333 423.072 12.6333L423 12.6906ZM410.749 150.251C410.691 149.821 410.72 149.434 410.777 149.075C410.806 149.262 410.849 149.463 410.849 149.678C410.849 149.821 410.849 149.964 410.835 150.122C410.82 150.151 410.835 150.208 410.835 150.266H410.749V150.251Z" fill="#5E5CA8"/>
<path d="M0 146.294C0.474522 146.294 0.949043 146.38 1.38043 146.538C0.963422 146.394 0.50328 146.337 0 146.337V146.308V146.294Z" fill="#5E5CA8"/>
<path d="M0.50328 20.6631C0.330727 20.6774 0.172553 20.6918 0 20.6918C0.172553 20.6774 0.330727 20.6774 0.50328 20.6631Z" fill="#5E5CA8"/>
<path d="M2.28621 36.7666C2.12804 36.8813 1.95549 36.9674 1.76855 37.0534C1.88359 36.9817 2.01301 36.91 2.12804 36.8526C2.18556 36.824 2.2287 36.7809 2.28621 36.7666Z" fill="#5E5CA8"/>
<path d="M2.28635 36.7665C2.38701 36.6948 2.47328 36.6518 2.55956 36.5657C2.66022 36.494 2.74649 36.408 2.84715 36.3076C2.94781 36.2359 3.03408 36.1355 3.12036 36.0352C2.89029 36.322 2.6027 36.5801 2.27197 36.7665H2.28635Z" fill="#5E5CA8"/>
<path d="M3.55172 131.552C3.40793 131.308 3.23537 131.093 3.03406 130.878C2.77523 130.591 2.47326 130.347 2.12816 130.161C1.52422 129.788 0.790869 129.559 0 129.559C1.75429 129.544 2.93341 130.405 3.55172 131.552Z" fill="#5E5CA8"/>
<path d="M3.36457 35.7197C3.29267 35.8201 3.22077 35.9205 3.12012 36.0352C3.20639 35.9205 3.29267 35.8344 3.36457 35.7197Z" fill="#5E5CA8"/>
<path d="M3.55168 35.3761C3.49416 35.4908 3.43664 35.6055 3.36475 35.7202C3.45102 35.5912 3.52292 35.4334 3.59482 35.29C3.59482 35.3187 3.58044 35.3474 3.56606 35.3761H3.55168Z" fill="#5E5CA8"/>
<path d="M3.98297 34.1426C3.92545 34.5441 3.76728 34.9313 3.59473 35.2898C3.78166 34.9169 3.91107 34.5297 3.98297 34.1426Z" fill="#5E5CA8"/>
<path d="M3.49414 148.172C3.9399 148.817 4.14122 149.563 4.05494 150.251C4.04056 149.534 3.85363 148.817 3.49414 148.172Z" fill="#5E5CA8"/>
<path d="M410.777 149.062C410.806 149.248 410.849 149.449 410.849 149.664C410.821 149.807 410.821 149.951 410.835 150.108C410.821 150.137 410.835 150.194 410.835 150.252H410.749C410.691 149.822 410.72 149.434 410.777 149.076V149.062Z" fill="#5E5CA8"/>
<path d="M419.808 80.9616C419.664 81.1193 419.564 81.2914 419.463 81.4635C419.564 81.2771 419.664 81.105 419.808 80.9473C419.794 80.9473 419.808 80.9616 419.808 80.9616Z" fill="#5E5CA8"/>
<path d="M420.872 36.8526C420.872 36.8526 420.843 36.8239 420.814 36.8096C420.987 36.9099 421.145 37.0103 421.346 37.082C421.174 37.0247 421.016 36.9386 420.872 36.8383V36.8526Z" fill="#5E5CA8"/>
<path d="M419.98 36.1504C420.052 36.2364 420.153 36.3081 420.239 36.3942C420.211 36.3655 420.182 36.3511 420.167 36.3225C420.096 36.2508 420.024 36.2077 419.98 36.1504Z" fill="#5E5CA8"/>
<path d="M420.814 36.8101C420.599 36.681 420.412 36.5376 420.239 36.3799C420.311 36.4372 420.369 36.5089 420.455 36.5663C420.556 36.6523 420.685 36.724 420.814 36.8101Z" fill="#5E5CA8"/>
<path d="M423 129.559C422.367 129.559 421.763 129.717 421.231 129.989C421.116 130.018 420.987 130.09 420.872 130.176C420.757 130.233 420.642 130.291 420.541 130.377C420.484 130.405 420.441 130.448 420.383 130.491C420.297 130.563 420.21 130.635 420.139 130.692C420.067 130.749 419.995 130.807 419.966 130.879C419.204 131.725 418.873 132.886 418.974 134.019C418.744 131.882 420.095 129.545 423 129.545V129.559Z" fill="#5E5CA8"/>
<path d="M423 20.6774C422.827 20.6918 422.669 20.6774 422.497 20.6631C422.669 20.6774 422.827 20.6774 423 20.6774Z" fill="#5E5CA8"/>
<path d="M421.246 146.666C421.778 146.408 422.367 146.25 423 146.25V146.322C422.324 146.322 421.749 146.436 421.246 146.666Z" fill="#5E5CA8"/>
<path d="M3.6526 118.675C3.6526 118.675 3.59508 118.775 3.56632 118.847C3.53756 118.904 3.5088 118.962 3.48004 119.019C2.87611 120.137 1.71137 120.94 -0.0141602 120.94V120.869C0.575397 120.854 1.07868 120.768 1.5532 120.596C1.75451 120.51 1.94144 120.424 2.114 120.338C2.14276 120.324 2.17151 120.31 2.20027 120.281C2.58852 120.037 2.93362 119.736 3.19245 119.392C3.33625 119.22 3.45128 119.033 3.55194 118.847C3.5807 118.79 3.62384 118.732 3.63822 118.675H3.6526Z" fill="#5E5CA8"/>
<path d="M3.69552 101.884C3.79617 101.626 3.89683 101.353 3.95435 101.066C3.93997 101.267 3.88245 101.454 3.79617 101.654C3.35041 103.074 2.08502 104.235 0 104.235V104.164C0.474522 104.164 0.905905 104.092 1.30853 103.992C1.32291 103.977 1.33729 103.977 1.38043 103.977C1.62488 103.906 1.84057 103.82 2.0275 103.705C2.12816 103.633 2.25757 103.59 2.35823 103.518C2.4445 103.447 2.54516 103.361 2.64582 103.289C3.10596 102.916 3.45107 102.414 3.69552 101.884Z" fill="#5E5CA8"/>
<path d="M3.79617 84.9629C3.76741 85.0776 3.72428 85.1923 3.65238 85.307C3.62362 85.4074 3.5661 85.5365 3.47982 85.6369C3.42231 85.7516 3.36479 85.8663 3.27851 85.9667C3.20662 86.0527 3.12034 86.1531 3.03406 86.2535C2.40137 87.0278 1.36605 87.5584 0 87.5584V87.4867C0.287589 87.4867 0.560798 87.4723 0.819628 87.415C0.963423 87.4006 1.07846 87.3576 1.20787 87.3289C1.45232 87.2572 1.66802 87.1712 1.89809 87.0708C2.0994 86.9704 2.28633 86.8701 2.45888 86.741C2.45888 86.741 2.47326 86.7123 2.48764 86.7123C2.93341 86.3682 3.29289 85.938 3.55172 85.4648C3.638 85.307 3.7099 85.135 3.78179 84.9629H3.79617Z" fill="#5E5CA8"/>
<path d="M3.65234 68.601C3.70986 68.4863 3.753 68.3716 3.79614 68.2568C3.76738 68.3572 3.70986 68.4863 3.65234 68.601Z" fill="#5E5CA8"/>
<path d="M3.33603 69.1455C3.45107 68.9734 3.58048 68.787 3.65238 68.6006C3.10596 69.8768 1.86933 70.8519 0 70.8519V70.7515C0.790869 70.7515 1.4667 70.5795 2.01312 70.307C2.24319 70.1923 2.4445 70.0489 2.63144 69.9198C2.90465 69.6904 3.1491 69.4466 3.33603 69.1455Z" fill="#5E5CA8"/>
<path d="M3.35041 52.4261C3.46544 52.254 3.55172 52.0819 3.65238 51.8955C3.10596 53.1717 1.86933 54.1468 0 54.1468V54.0751C0.316348 54.0751 0.618316 54.0465 0.891525 53.9891C0.905905 53.9891 0.920284 53.9891 0.949043 53.9748C1.10722 53.9604 1.23663 53.9174 1.38043 53.8744C1.65364 53.8027 1.89809 53.688 2.14254 53.5446C2.25757 53.4729 2.37261 53.4012 2.48764 53.3151C2.5883 53.2434 2.68896 53.1717 2.77523 53.0714C2.84713 53.014 2.89027 52.971 2.94778 52.9136C3.10596 52.7559 3.23537 52.5838 3.36479 52.3974L3.35041 52.4261Z" fill="#5E5CA8"/>
<path d="M4.04086 50.4756C4.02648 50.6333 4.0121 50.7624 3.96896 50.9201C3.96896 51.0062 3.95458 51.1065 3.91144 51.1926C3.89706 51.3073 3.85393 51.4363 3.79641 51.5511C3.76765 51.6371 3.72451 51.7231 3.69575 51.8092C3.68137 51.8379 3.66699 51.8809 3.66699 51.8952C3.68137 51.8665 3.69575 51.8235 3.71013 51.7948C3.79641 51.5941 3.88268 51.379 3.92582 51.1639C3.98334 50.9345 4.02648 50.705 4.04086 50.4756Z" fill="#5E5CA8"/>
<path d="M1.16495 37.2404C1.35189 37.1831 1.52444 37.1401 1.69699 37.0684C1.68261 37.0827 1.66823 37.097 1.63948 37.097C1.12182 37.3408 0.575397 37.4555 -0.0141602 37.4555V37.3695C0.402844 37.3695 0.791089 37.3121 1.15057 37.2261L1.16495 37.2404Z" fill="#5E5CA8"/>
<path d="M2.12816 36.8532C2.01313 36.9249 1.88371 36.9966 1.76867 37.054C1.7543 37.0683 1.71116 37.0683 1.69678 37.0683C1.85495 36.9966 1.98437 36.9249 2.12816 36.8389V36.8532Z" fill="#5E5CA8"/>
<path d="M423 37.3835V37.4695C422.439 37.4695 421.878 37.3548 421.361 37.111C421.346 37.111 421.346 37.0967 421.346 37.0967C421.504 37.154 421.648 37.1971 421.821 37.2544C422.18 37.3405 422.583 37.3978 422.985 37.3978L423 37.3835Z" fill="#5E5CA8"/>
<path d="M419.578 52.3108C419.621 52.3968 419.693 52.4542 419.736 52.5402C419.693 52.4829 419.65 52.4398 419.621 52.3825C419.592 52.3251 419.564 52.2821 419.535 52.2391C419.434 52.0957 419.362 51.9666 419.305 51.8232C419.319 51.8519 419.333 51.8806 419.362 51.8949C419.362 51.9236 419.377 51.9523 419.391 51.9666C419.448 52.0814 419.506 52.1961 419.578 52.3108Z" fill="#5E5CA8"/>
<path d="M423 54.0894V54.1611C421.447 54.1611 420.369 53.4871 419.736 52.5264C419.966 52.8418 420.239 53.1286 420.541 53.3437C420.642 53.4298 420.742 53.5015 420.872 53.5445C420.972 53.6162 421.073 53.6592 421.188 53.7022C421.346 53.7739 421.476 53.8456 421.634 53.8743C421.72 53.903 421.821 53.946 421.907 53.9603C421.979 53.9747 422.051 53.989 422.108 53.989C422.382 54.0464 422.698 54.0751 423 54.0751V54.0894Z" fill="#5E5CA8"/>
<path d="M423 70.752V70.8524C421.059 70.8524 419.822 69.8056 419.305 68.4863C419.333 68.515 419.362 68.558 419.362 68.5867C419.448 68.7588 419.549 68.9309 419.65 69.0886C419.909 69.4758 420.254 69.8199 420.642 70.1067C421.26 70.4939 422.037 70.752 423 70.752Z" fill="#5E5CA8"/>
<path d="M423 87.472V87.5437C420.814 87.5437 419.534 86.2388 419.132 84.6758C419.218 84.9482 419.319 85.2064 419.448 85.4501C419.549 85.6365 419.678 85.823 419.808 85.995C419.995 86.2531 420.239 86.4969 420.512 86.6977C420.699 86.8411 420.9 86.9701 421.131 87.0705C421.231 87.1279 421.332 87.1565 421.447 87.1852C421.893 87.3573 422.425 87.4577 423.014 87.4577L423 87.472Z" fill="#5E5CA8"/>
<path d="M419.592 102.399C419.635 102.485 419.707 102.543 419.75 102.629C419.721 102.586 419.678 102.543 419.649 102.5C419.592 102.442 419.563 102.385 419.534 102.313C419.448 102.213 419.391 102.112 419.362 101.983C419.434 102.141 419.52 102.27 419.606 102.399H419.592Z" fill="#5E5CA8"/>
<path d="M423 104.164V104.235C421.461 104.235 420.383 103.576 419.75 102.644C419.851 102.787 419.966 102.93 420.095 103.059C420.181 103.145 420.268 103.231 420.354 103.303C420.555 103.461 420.742 103.59 420.972 103.719C421.174 103.819 421.404 103.905 421.619 103.991C421.648 103.991 421.677 103.991 421.691 104.006C422.079 104.106 422.511 104.178 423 104.178V104.164Z" fill="#5E5CA8"/>
<path d="M423 120.869V120.941C421.346 120.941 420.196 120.181 419.578 119.148C419.65 119.22 419.678 119.292 419.736 119.335C419.88 119.536 420.038 119.722 420.239 119.894C420.656 120.267 421.188 120.568 421.806 120.711C421.979 120.769 422.152 120.798 422.338 120.812C422.569 120.841 422.77 120.869 423.014 120.869H423Z" fill="#5E5CA8"/>
</g>
<defs>
<clipPath id="clip0_5355_4003">
<rect width="423" height="167" fill="white"/>
</clipPath>
</defs>
</svg>