<svg xmlns="http://www.w3.org/2000/svg" fill="none" viewBox="0 0 423 228" height="228" width="423">
<g clip-path="url(#clip0_5355_4000)">
<path fill="url(#paint0_radial_5355_4000)" d="M210.484 0.595602C210.92 -0.193326 212.064 -0.193326 212.515 0.595602L220.333 14.6675C220.736 15.392 221.752 15.4725 222.267 14.8124L232.955 1.09472C233.519 0.370194 234.663 0.563401 234.969 1.43283L239.87 15.553C240.144 16.358 241.175 16.5996 241.772 16.0038L255.151 2.91408C255.828 2.25396 256.972 2.64037 257.117 3.5742L259.132 17.469C259.261 18.3384 260.293 18.757 260.986 18.2096L276.799 5.98929C277.589 5.37747 278.717 5.98929 278.669 6.95532L277.959 20.3671C277.911 21.3009 278.943 21.8966 279.732 21.4136L297.657 10.272C298.544 9.72462 299.656 10.5296 299.398 11.5279L296.174 24.2956C295.932 25.2617 296.932 26.0506 297.818 25.5998L317.467 15.6979C318.451 15.1988 319.498 16.2131 319.047 17.2114L313.551 29.2224C313.115 30.1723 314.066 31.1706 315.05 30.768L336.021 22.2187C337.085 21.7839 338.068 22.9754 337.423 23.9253L329.895 35.1152C329.283 36.0329 330.169 37.1922 331.217 36.8541L353.123 29.7215C354.251 29.3512 355.138 30.7197 354.348 31.5892L344.999 41.9257C344.225 42.7791 345.031 44.0993 346.144 43.8095L368.63 38.1099C369.823 37.804 370.596 39.3013 369.678 40.1064L358.668 49.5735C357.765 50.3463 358.475 51.7954 359.635 51.5861L382.347 47.3033C383.572 47.0779 384.249 48.6719 383.218 49.3803L370.709 57.9619C369.71 58.6542 370.306 60.216 371.515 60.055L394.179 57.1569C395.452 56.9959 396 58.6864 394.888 59.3143L381.009 67.0265C379.929 67.6222 380.413 69.2645 381.654 69.184L404.028 67.6061C405.317 67.5095 405.768 69.2806 404.592 69.8119L389.44 76.6385C388.295 77.1537 388.682 78.8604 389.939 78.8443L411.797 78.5223C413.103 78.5062 413.441 80.3095 412.216 80.7603L395.871 86.6853C394.678 87.12 394.952 88.875 396.226 88.9233L417.423 89.7927C418.744 89.841 418.954 91.6926 417.697 92.0468L400.223 97.0379C398.998 97.3922 399.16 99.1793 400.433 99.292L420.84 101.272C422.162 101.401 422.258 103.269 420.969 103.543L402.448 107.584C401.191 107.858 401.255 109.661 402.512 109.854L422.017 112.897C423.322 113.106 423.322 114.974 422.017 115.183L402.512 118.226C401.239 118.419 401.191 120.223 402.448 120.496L420.969 124.538C422.258 124.811 422.146 126.679 420.84 126.808L400.433 128.788C399.16 128.917 398.998 130.688 400.223 131.042L417.697 136.033C418.954 136.388 418.744 138.239 417.423 138.288L396.226 139.157C394.952 139.205 394.678 140.96 395.871 141.395L412.216 147.32C413.441 147.771 413.103 149.574 411.797 149.558L389.939 149.236C388.682 149.22 388.295 150.926 389.44 151.442L404.592 158.268C405.768 158.8 405.317 160.555 404.028 160.474L381.654 158.896C380.413 158.816 379.929 160.458 381.009 161.054L394.888 168.766C396 169.378 395.436 171.084 394.179 170.923L371.515 168.025C370.306 167.864 369.71 169.426 370.709 170.118L383.218 178.7C384.249 179.408 383.572 181.018 382.347 180.777L359.635 176.494C358.475 176.269 357.765 177.734 358.668 178.507L369.678 187.974C370.596 188.763 369.823 190.26 368.63 189.97L346.144 184.271C345.031 183.997 344.225 185.317 344.999 186.155L354.348 196.491C355.138 197.377 354.251 198.729 353.123 198.359L331.217 191.226C330.169 190.888 329.283 192.047 329.895 192.965L337.423 204.155C338.052 205.105 337.085 206.296 336.021 205.862L315.05 197.312C314.082 196.91 313.115 197.908 313.551 198.858L319.047 210.869C319.498 211.867 318.451 212.865 317.467 212.382L297.818 202.48C296.932 202.03 295.932 202.835 296.174 203.785L299.398 216.552C299.656 217.567 298.544 218.356 297.657 217.808L279.732 206.667C278.943 206.168 277.911 206.779 277.959 207.713L278.669 221.125C278.717 222.107 277.589 222.703 276.799 222.091L260.986 209.871C260.277 209.323 259.261 209.742 259.132 210.611L257.117 224.506C256.988 225.44 255.828 225.826 255.151 225.166L241.772 212.076C241.159 211.481 240.144 211.722 239.87 212.527L234.969 226.647C234.663 227.517 233.519 227.694 232.955 226.969L222.267 213.252C221.752 212.592 220.736 212.672 220.333 213.397L212.515 227.469C212.08 228.257 210.936 228.257 210.484 227.469L202.667 213.397C202.264 212.672 201.248 212.592 200.732 213.252L190.045 226.969C189.481 227.694 188.337 227.501 188.03 226.647L183.13 212.527C182.856 211.722 181.824 211.481 181.228 212.076L167.849 225.166C167.172 225.826 166.028 225.44 165.883 224.506L163.868 210.611C163.739 209.742 162.707 209.323 162.014 209.871L146.201 222.091C145.411 222.703 144.283 222.091 144.331 221.125L145.04 207.713C145.089 206.779 144.057 206.184 143.267 206.667L125.343 217.808C124.456 218.356 123.344 217.551 123.602 216.552L126.826 203.785C127.068 202.819 126.068 202.03 125.182 202.48L105.532 212.382C104.549 212.881 103.501 211.867 103.953 210.869L109.449 198.858C109.884 197.908 108.933 196.91 107.95 197.312L86.9791 205.862C85.9152 206.296 84.9319 205.105 85.5767 204.155L93.1044 192.965C93.7169 192.047 92.8303 190.888 91.7826 191.226L69.8766 198.359C68.7483 198.729 67.8617 197.361 68.6515 196.491L78.0007 186.155C78.7744 185.301 77.9684 183.981 76.8562 184.271L54.3699 189.97C53.1771 190.276 52.4034 188.779 53.3222 187.974L64.3316 178.507C65.2343 177.734 64.525 176.285 63.3644 176.494L40.6525 180.777C39.4274 181.002 38.7504 179.408 39.7821 178.7L52.2906 170.118C53.2899 169.426 52.6935 167.864 51.4846 168.025L28.821 170.923C27.5476 171.084 26.9995 169.394 28.1118 168.766L41.9904 161.054C43.0704 160.458 42.5868 158.816 41.3456 158.896L18.9722 160.474C17.6826 160.571 17.2313 158.8 18.408 158.268L33.56 151.442C34.7045 150.926 34.3176 149.22 33.0604 149.236L11.2027 149.558C9.89706 149.574 9.55856 147.771 10.7836 147.32L27.1285 141.395C28.3213 140.96 28.0473 139.205 26.7739 139.157L5.57712 138.288C4.25534 138.239 4.04579 136.388 5.30309 136.033L22.7763 131.042C24.0014 130.688 23.8402 128.901 22.5668 128.788L2.15985 126.808C0.838075 126.679 0.741359 124.811 2.0309 124.538L20.5519 120.496C21.8092 120.223 21.7447 118.436 20.4874 118.226L0.983148 115.183C-0.322507 114.974 -0.322507 113.106 0.983148 112.897L20.4874 109.854C21.7608 109.661 21.8092 107.858 20.5519 107.584L2.0309 103.543C0.741359 103.269 0.854194 101.401 2.15985 101.272L22.5668 99.292C23.8402 99.1632 24.0014 97.3922 22.7763 97.0379L5.30309 92.0468C4.04579 91.6926 4.25534 89.841 5.57712 89.7927L26.7739 88.9233C28.0473 88.875 28.3213 87.12 27.1285 86.6853L10.7836 80.7603C9.55856 80.3095 9.89706 78.5062 11.2027 78.5223L33.0604 78.8443C34.3176 78.8604 34.7045 77.1537 33.56 76.6385L18.408 69.8119C17.2313 69.2806 17.6826 67.5256 18.9722 67.6061L41.3456 69.184C42.5868 69.2645 43.0704 67.6222 41.9904 67.0265L28.1118 59.3143C26.9995 58.7025 27.5637 56.9959 28.821 57.1569L51.4846 60.055C52.6935 60.216 53.2899 58.6542 52.2906 57.9619L39.7821 49.3803C38.7504 48.6719 39.4274 47.0618 40.6525 47.3033L63.3644 51.5861C64.525 51.8115 65.2343 50.3463 64.3316 49.5735L53.3222 40.1064C52.4034 39.3174 53.1771 37.8201 54.3699 38.1099L76.8562 43.8095C77.9684 44.0832 78.7744 42.763 78.0007 41.9257L68.6515 31.5892C67.8617 30.7036 68.7483 29.3512 69.8766 29.7215L91.7826 36.8541C92.8303 37.1922 93.7169 36.0329 93.1044 35.1152L85.5767 23.9253C84.9319 22.9754 85.9152 21.7839 86.9791 22.2187L107.95 30.768C108.917 31.1706 109.884 30.1723 109.449 29.2224L103.953 17.2114C103.501 16.2131 104.549 15.2149 105.532 15.6979L125.182 25.5998C126.068 26.0506 127.068 25.2456 126.826 24.2956L123.602 11.5279C123.344 10.5135 124.456 9.72462 125.343 10.272L143.267 21.4136C144.057 21.9127 145.089 21.3009 145.04 20.3671L144.331 6.95532C144.283 5.97319 145.411 5.37747 146.201 5.98929L162.014 18.2096C162.723 18.757 163.739 18.3384 163.868 17.469L165.883 3.5742C166.011 2.64037 167.172 2.25396 167.849 2.91408L181.228 16.0038C181.841 16.5996 182.856 16.358 183.13 15.553L188.03 1.43283C188.337 0.563401 189.481 0.370194 190.045 1.09472L200.732 14.8124C201.248 15.4725 202.264 15.392 202.667 14.6675L210.484 0.595602Z"></path>
</g>
<defs>
<radialGradient gradientTransform="translate(211.5 114.008) rotate(-180) scale(203.118 101.442)" gradientUnits="userSpaceOnUse" r="1" cy="0" cx="0" id="paint0_radial_5355_4000">
<stop stop-color="#FFFFFB" offset="0.36"></stop>
<stop stop-color="#F9BF29" offset="1"></stop>
</radialGradient>
<clipPath id="clip0_5355_4000">
<rect fill="white" height="228" width="423"></rect>
</clipPath>
</defs>
</svg>
