<svg xmlns="http://www.w3.org/2000/svg" fill="none" viewBox="0 0 52 88" height="88" width="52">
<path fill="#F04D26" d="M27.9024 69.9561C27.4462 69.4761 26.6527 68.916 25.6489 68.7079C24.649 68.5319 23.3358 68.804 22.0305 70.0281C19.4119 72.5645 20.7172 74.4608 21.9035 75.805C21.9511 75.853 22.0344 75.9411 22.0741 75.9731L22.1138 76.0291C23.308 77.2773 25.3077 78.2694 27.8429 76.0691C30.521 73.1486 28.684 70.7723 27.9024 69.9561Z"></path>
<path fill="#F04D26" d="M34.1315 26.1574C35.298 23.597 33.6316 17.9481 27.216 17.6441C26.5336 17.6441 25.7639 17.7001 24.9109 17.8121C17.9082 18.5082 17.7653 25.2132 17.5947 27.1575V27.2295C17.7971 29.3179 16.2696 31.1902 14.1906 31.3982C12.1036 31.5982 10.2468 30.062 10.0445 27.9657C10.0286 27.8536 10.0167 27.5736 10.0167 27.1575C9.84213 24.8052 10.8102 12.0192 23.9587 10.2029C25.0934 10.0749 26.1726 10.0029 27.216 10.0029C32.5365 9.90688 36.8532 12.2112 39.0592 15.6678C41.2731 19.0683 42.1459 22.4288 41.6857 26.5334C41.2255 30.6461 36.4089 36.615 32.3144 41.1277C28.2 45.3283 24.0063 49.857 23.5857 51.4653C23.07 52.5054 22.8795 53.4976 22.8795 54.5138C22.8795 55.7459 23.1969 56.9861 23.5381 57.8823C23.8635 58.7624 24.1134 59.1465 24.1134 59.1465C25.2204 60.9387 24.6768 63.2911 22.9152 64.4113C22.2883 64.7953 21.594 64.9874 20.9116 64.9874C19.642 64.9874 18.4081 64.3473 17.6899 63.1951C17.5193 62.867 15.3491 59.4985 15.3015 54.5138C15.2856 52.5054 15.6903 50.2411 16.6425 48.3928C18.5152 43.8961 22.8874 39.7035 26.8431 35.8309C30.7987 31.9663 32.9571 28.7178 34.1315 26.1574Z"></path>
</svg>
