<svg xmlns="http://www.w3.org/2000/svg" fill="none" viewBox="0 0 415 249" height="249" width="415">
<path fill="#FFC62F" d="M414.874 123.995C414.874 151.29 411.093 175.363 405.353 189.768C405.353 189.768 405.353 189.823 405.325 189.85C396.108 207.23 385.869 217.311 375.796 222.461C374.25 223.26 372.705 223.921 371.187 224.499C369.669 225.05 368.151 225.491 366.661 225.877H366.633C365.198 226.207 363.763 226.455 362.356 226.62C360.838 226.813 359.348 226.896 357.885 226.896C350.268 226.896 343.424 224.582 338.07 221.359C338.042 221.359 338.015 221.359 337.987 221.359C336.966 220.754 336 220.093 335.09 219.431C334.51 219.018 333.958 218.523 333.434 217.999C333.02 217.559 332.661 217.063 332.275 216.567C332.247 216.567 332.192 216.484 332.164 216.429C327.114 229.402 311.935 243.89 281.357 247.333C269.904 248.6 256.298 248.324 240.264 245.845C230.302 244.303 219.373 241.907 207.451 238.491C207.451 238.491 207.432 238.491 207.396 238.491C195.501 241.907 184.572 244.303 174.637 245.873C158.603 248.352 144.998 248.627 133.545 247.36C102.939 243.972 87.705 229.512 82.6271 216.567C82.5995 216.539 82.5995 216.484 82.5719 216.457C82.1855 217.008 81.7716 217.531 81.3024 218.027C80.8056 218.55 80.2261 219.046 79.6465 219.459C78.791 220.092 77.9355 220.698 76.9696 221.277L76.8316 221.056L76.8868 221.387C76.8868 221.387 76.666 221.47 76.5832 221.525C71.2845 224.637 64.5231 226.923 57.0165 226.951C55.5815 226.951 54.1188 226.868 52.6285 226.703C51.1935 226.538 49.7308 226.29 48.2681 225.932C48.2681 225.904 48.2129 225.932 48.2129 225.932C46.7227 225.574 45.2324 225.133 43.7145 224.554C42.859 224.224 42.0035 223.866 41.1204 223.48C39.6025 222.819 38.057 222.076 36.5116 221.167C29.557 217.063 22.6024 210.563 15.979 200.895C15.289 199.903 14.5991 198.857 13.9092 197.783C12.6397 195.744 11.3702 193.569 10.1007 191.255C9.93512 190.869 9.76953 190.456 9.60395 190.043C9.60395 189.988 9.54875 189.933 9.54875 189.905C3.78087 175.528 0 151.4 0 124.05C0 96.6998 3.83606 72.159 9.71434 57.8366C9.85233 57.5061 9.99031 57.1756 10.1283 56.845C12.0049 53.3471 13.9644 50.1521 15.979 47.2325C26.3281 32.0012 37.6155 24.6472 48.2405 22.1684C49.3168 21.8929 50.3655 21.7001 51.4142 21.5349C56.2714 20.5709 60.8802 20.9014 65.1854 22.0582C70.8429 23.3527 75.7829 25.8041 79.6189 28.641C80.1985 29.0541 80.778 29.5224 81.2748 30.0732C81.744 30.569 82.1579 31.0923 82.5443 31.6432C82.5443 31.6432 82.5443 31.5605 82.5995 31.533C87.6774 18.5878 102.911 4.1277 133.517 0.739912C144.97 -0.527067 158.576 -0.251636 174.61 2.22724C184.545 3.79719 195.473 6.19343 207.368 9.60876C207.368 9.60876 207.386 9.60876 207.423 9.60876C219.345 6.19343 230.274 3.79719 240.237 2.25478C256.271 -0.224093 269.876 -0.499523 281.329 0.767455C311.908 4.21033 327.086 18.698 332.137 31.6707C332.137 31.6156 332.219 31.5605 332.247 31.533C332.633 31.0372 332.992 30.5415 333.406 30.1008C333.93 29.5499 334.482 29.0817 335.062 28.6685C338.953 25.8041 343.948 23.3527 349.661 22.0858C354.822 20.9289 360.59 20.7637 366.578 22.1959C369.586 22.912 372.65 24.0138 375.768 25.6113C385.814 30.7618 396.025 40.7875 405.215 58.0845C405.215 58.1396 405.27 58.1946 405.27 58.2222C411.066 72.5996 414.846 96.7273 414.846 124.078L414.874 123.995Z"></path>
</svg>
