<?xml version="1.0" standalone="no"?>
<!DOCTYPE svg PUBLIC "-//W3C//DTD SVG 1.1//EN" "http://www.w3.org/Graphics/SVG/1.1/DTD/svg11.dtd">
<svg xmlns="http://www.w3.org/2000/svg" width="85" height="80" viewBox="0 0 85 80" fill="none">
<path d="M83.8116 40.377C82.3076 16.1756 87.8749 24.7101 61.0696 22.8937C63.1687 -7.3277 25.5963 -7.60458 24.9291 21.9226C17.892 21.8222 10.8579 21.8517 3.78821 22.109C2.0007 22.1773 0.563757 23.6466 0.560188 25.4517C0.512001 35.942 0.202738 47.901 0.0263075 58.3923C-1.02233 83.9049 29.5313 79.0141 46.5026 79.0929C77.2676 83.0786 86.9338 69.9888 83.8116 40.377ZM46.3907 5.65451C55.0776 7.66868 56.5388 15.1802 56.3588 22.7739C48.129 22.5462 39.877 22.2434 31.7331 22.0516C32.2288 12.7452 35.122 4.19131 46.3907 5.65451ZM77.0935 55.2594C75.3768 80.2027 47.9625 68.8114 31.5539 71.8936C-4.35693 76.2447 8.09318 51.3608 5.81207 27.2464C11.9953 26.9532 18.2303 26.8456 24.4941 26.8413C24.2973 30.1152 24.2626 33.3422 24.2527 36.2913C24.5497 41.5013 31.9736 41.3433 32.0786 36.1567C31.9473 33.4612 31.7145 30.2238 31.6595 26.877C39.7878 26.9591 47.95 27.163 56.0969 27.3165C55.8588 30.4127 55.42 33.36 55.6038 36.4644C55.8287 40.5736 62.1713 39.7054 61.2371 35.6618C60.8315 32.9761 60.8404 30.1985 60.9238 27.3999C66.835 27.4917 72.7332 27.5386 78.5993 27.4725C77.6177 36.6803 78.0465 46.0919 77.0935 55.2594Z" fill="#5D57C5"/>
</svg>