<?xml version="1.0" standalone="no"?>
<!DOCTYPE svg PUBLIC "-//W3C//DTD SVG 1.1//EN" "http://www.w3.org/Graphics/SVG/1.1/DTD/svg11.dtd">
<svg xmlns="http://www.w3.org/2000/svg" width="72" height="95" viewBox="0 0 72 95" fill="none">
<g clip-path="url(#clip0_5356_4316)">
<path d="M64.2246 84.8216C64.0278 86.8553 63.5686 87.9705 61.9941 88.889C60.6164 89.8074 58.3859 90.2667 56.3522 90.6603C54.3185 91.0539 52.2848 91.5787 50.3167 92.0379C46.2493 92.694 42.2476 93.4156 38.1802 93.8092C30.9638 93.35 24.7315 92.2347 17.712 90.4635C15.4815 89.8074 13.4478 89.0858 12.7917 87.3145C11.8733 85.5432 12.1357 83.2471 11.8733 80.8198L11.4141 76.3588C12.5293 77.474 14.1038 78.5893 15.6783 79.3109C18.1712 80.4262 20.8609 81.0822 23.5507 81.5414C28.7333 82.4599 34.1128 82.9191 39.4922 82.6567C44.8717 82.4599 50.0543 81.5414 55.237 80.1638C57.7299 79.5077 60.4196 78.7861 62.8469 77.2116C63.503 76.7524 64.2246 76.2932 64.8806 75.6371C64.8806 76.5556 64.6838 77.6708 64.6838 78.5893C64.6838 80.623 64.487 82.8535 64.2246 84.8872L64.2246 84.8216ZM7.41229 21.777C8.78995 20.8585 9.64279 20.3993 11.0205 20.6617C12.3981 20.9241 13.5134 21.5801 14.6286 22.433C16.0063 23.3514 17.3184 24.2043 19.0896 24.9259C20.0081 25.1227 21.1233 25.3851 22.2386 25.1227C25.1907 24.9259 27.4212 22.433 29.1925 21.3177C30.3078 20.3993 31.2262 20.2025 32.1447 20.2025C33.0631 20.2025 34.1784 20.8585 35.4904 21.5801C38.1802 23.1546 41.5259 24.5323 44.6749 25.1883C47.8238 25.8444 51.1696 26.1068 54.581 25.8444C56.1554 25.6475 57.9267 25.3851 59.5012 24.9259C61.0757 24.4667 62.4533 24.0075 63.9622 23.5482C66.4551 22.8922 67.3736 22.8266 69.6041 24.4011C67.3736 37.1937 67.308 52.2824 65.9959 65.5343C65.7991 68.0272 65.5367 70.4545 65.3399 72.9474C64.4214 73.8659 63.3062 74.3251 62.1909 74.7187C59.9604 75.3747 57.2707 75.6371 54.7778 76.0964C49.5951 76.7524 44.6749 77.2116 39.4922 77.474C34.3096 77.6708 29.3893 77.6708 24.2067 77.474C19.7457 77.2772 15.4159 77.2772 11.6109 74.7843C11.1517 70.3233 10.9548 65.5999 10.2332 59.0396C9.31477 49.5927 8.46193 40.1458 7.54349 30.5022C7.34668 27.55 6.88746 24.6635 6.62504 21.7114C6.62504 22.1706 7.08427 21.9082 7.28108 21.7114L7.41229 21.777ZM71.1129 1.43998C70.6537 3.9329 70.0633 20.3337 69.6697 22.761C68.7512 21.8426 70.3257 23.0234 68.948 22.3018C67.3736 21.6458 64.2246 22.3674 62.6501 22.3674C59.3044 22.5642 56.549 23.2858 53.4001 23.2858C47.5614 23.2858 41.7227 21.7114 36.8025 18.5624C35.4248 17.9064 33.8504 16.7911 31.6198 16.5287C29.3893 16.3319 27.0932 17.4471 25.7812 18.5624C24.4035 19.6777 23.2882 20.7929 22.4354 21.5145C21.3202 22.1706 20.6641 22.433 19.4833 22.1706C18.368 21.9738 16.9903 21.2521 15.6783 20.5961C14.3662 19.9401 12.5293 19.0216 10.758 19.0216C9.8396 19.0216 8.72435 19.2184 8.06831 19.6777C7.14987 20.1369 6.69065 20.7929 6.03462 21.4489L5.83781 21.6457C5.18177 16.2663 4.72256 10.8212 4.06653 5.24496C13.907 4.32652 23.8131 3.47368 33.6535 2.75204C39.033 2.55523 44.6749 3.21127 50.0543 2.94886C52.9409 2.81765 66.9143 4.72014 71.1786 4.58894L71.1786 1.24318C65.7335 0.783954 55.0402 0.455938 49.6607 0.193525C47.2334 -0.00328469 45.0029 -0.0032894 42.51 -0.00328961C29.9142 -0.2001 16.4655 -0.462511 2.09843 0.652741C0.983176 0.652741 0.0647295 1.768 0.0647294 2.88325L0.0647294 3.08006C1.83601 22.3674 4.98497 52.2824 7.67469 74.0627C8.33073 78.5237 8.78995 82.7879 9.05236 84.8216C9.24917 86.1993 9.51158 87.3145 10.43 88.6266C11.0861 90.0042 12.4637 90.8571 13.579 91.5787C14.9566 92.2347 16.0719 92.4972 17.1871 92.694C19.6801 93.1532 21.9106 93.35 24.4035 93.6124C28.8645 94.0716 33.5879 94.2684 38.1146 94.0716C41.9851 94.7277 46.2493 94.7277 50.3167 94.5309C52.3504 94.334 54.5809 94.0716 56.6146 93.8748C58.6483 93.4156 60.8788 93.4156 63.1094 92.3004C64.2246 91.6443 65.3399 90.7259 66.0615 89.6106C66.7175 88.4954 67.1768 87.1177 67.4392 86.0024C67.8984 83.7719 68.0952 81.7382 68.3576 79.7045C69.0136 75.4403 69.4729 71.4385 69.9321 67.1743C71.441 52.0856 71.3754 16.7255 71.1129 1.43998Z" fill="#5D57C5"/>
<path d="M41.5266 60.4206C35.0975 60.4206 29.9149 65.6033 29.9149 71.9668C29.9149 65.5377 24.7322 60.4206 18.3031 60.4206C24.7322 60.4206 29.9149 55.238 29.9149 48.8745C29.9149 55.3036 35.0975 60.4206 41.5266 60.4206Z" fill="#F9BF29"/>
<path d="M63.1101 39.6882C56.681 39.6882 51.4983 44.8709 51.4983 51.2344C51.4983 44.8053 46.3157 39.6882 39.8866 39.6882C46.3157 39.6882 51.4984 34.5056 51.4984 28.1421C51.4984 34.5712 56.681 39.6882 63.1101 39.6882Z" fill="#F9BF29"/>
</g>
<defs>
<clipPath id="clip0_5356_4316">
<rect width="71.245" height="94.6654" fill="white" transform="translate(71.2451 94.665) rotate(-180)"/>
</clipPath>
</defs>
</svg>