<?xml version="1.0" standalone="no"?>
<!DOCTYPE svg PUBLIC "-//W3C//DTD SVG 1.1//EN" "http://www.w3.org/Graphics/SVG/1.1/DTD/svg11.dtd">
<svg xmlns="http://www.w3.org/2000/svg" width="85" height="120" viewBox="0 0 85 120" fill="none">
<path d="M15.8194 94.4475H35.9953L39.906 85.915C36.973 83.9152 32.3512 85.515 15.375 85.515L15.7749 94.492L15.8194 94.4475Z" fill="#F9BF29"/>
<path d="M68.5255 84.0932L57.5933 89.426L61.104 97.2919L74.8361 91.5591C78.0802 89.426 79.6356 86.0041 80.0356 84.5376C83.2797 79.8269 83.9907 69.5168 83.9463 64.9394C84.524 56.6291 78.2135 47.8299 74.9694 44.4969L62.4816 38.8975L60.2596 46.319C61.5484 46.6301 64.2148 47.3411 64.3037 47.43C64.437 47.5633 67.9922 50.9408 69.7698 52.6295C73.8139 57.1179 76.0804 63.9617 74.9694 72.8053L68.5255 84.1376V84.0932Z" fill="#F9BF29"/>
<path d="M65.6359 19.2097L61.7696 17.0766L46.6599 7.83305L49.593 0.989258L69.3689 11.2105L67.6802 16.81L66.3914 18.9875C66.2581 19.2542 65.9025 19.3431 65.6359 19.2097Z" fill="#F9BF29"/>
<path d="M30.6618 106.226L34.4392 97.2492L39.061 86.4502L57.0148 88.5389L64.1697 107.159L73.991 107.737L75.4131 112.359L73.0134 117.692H2.53117L1.42017 105.204H8.13061L30.7062 106.182L30.6618 106.226Z" fill="#FBF3CC"/>
<path d="M61.9028 27.7419L58.6587 35.4301L59.7697 36.1411L61.8584 42.4516L58.6142 47.7844L50.215 48.7621L47.682 54.9393L45.46 59.6944L42.5269 64.8939L20.929 50.5842L29.9059 32.3637L40.5715 16.543L61.8584 27.7419H61.9028Z" fill="#FBF3CC"/>
<path d="M38.7943 63.2065C38.661 63.7842 36.3945 68.0949 35.2835 70.2281L31.7728 73.0278L16.7964 63.2065L23.6402 53.5186L38.7499 63.2065H38.7943Z" fill="#F9BF29"/>
<path d="M48.6159 9.3916L43.9941 16.9464L58.5705 24.6346L61.3702 20.8572L63.3256 17.9241L48.6159 9.3916Z" fill="#F9BF29"/>
<path d="M1.33162 118.448C-1.06815 117.47 0.309492 109.204 1.33162 105.205C3.46475 108.226 1.64268 115.07 2.84257 116.137C4.35353 117.47 70.214 116.759 72.2582 115.959C74.3025 115.159 74.7469 110.448 72.2582 108.938C70.2584 107.738 8.66428 108.938 4.97575 105.205C20.1743 105.205 45.7274 105.293 61.3259 105.56C59.9927 100.272 56.3042 90.6726 55.1487 89.6949C53.7266 88.4506 41.5944 88.5395 39.9946 88.895C38.7058 89.1616 35.4617 100.227 32.0842 102.983C32.662 100.894 33.4619 98.0497 34.3507 95.2499C28.4846 95.7388 16.3968 96.4054 15.1969 95.2499C13.686 93.8279 13.1527 86.7174 14.7526 85.0287C16.0413 83.6955 30.2177 84.451 37.1504 85.0287C30.7955 85.2509 17.8634 85.9175 16.8857 86.9841C15.6414 88.3173 16.2635 93.2057 16.8857 93.3834C17.3745 93.5168 29.1512 93.4279 34.9284 93.3834C36.1727 89.4727 37.417 86.1397 38.0392 85.8286C39.4613 85.1176 55.4598 84.6732 57.3263 86.5397C57.5485 86.7619 57.8152 87.2063 58.1707 87.784C73.4137 84.9398 74.7469 68.4969 74.7469 62.8975C76.6133 69.5191 76.2134 84.3176 59.5927 90.717C60.3038 92.3169 61.1481 94.1834 61.9481 96.1387C65.4588 95.3833 73.6359 92.6724 78.3021 87.784C76.3912 90.8504 70.6139 97.1609 62.7035 98.0052C63.859 100.849 64.9255 103.605 65.681 105.649C70.9694 105.782 74.3913 105.916 74.7469 106.093C76.4356 106.982 76.2578 117.203 74.7469 118.448C73.2359 119.692 4.35355 119.692 1.33162 118.448Z" fill="#5D57C5"/>
<path d="M45.683 40.6784C46.9273 43.3892 50.127 47.611 53.0601 47.8777C57.2375 48.2332 61.1482 45.389 61.1482 41.7449C61.1482 38.1008 57.2375 31.8792 46.7496 37.1231C51.2825 33.6124 54.8377 32.9902 57.4152 33.7901C58.1707 32.368 59.5484 29.1683 58.8373 27.8796C57.9485 26.2797 43.0166 17.3028 40.528 17.8361C38.0393 18.3694 23.0185 47.8777 22.5741 50.0108C22.2186 51.6995 39.2392 59.4321 41.8611 64.4094C40.0835 64.4094 29.6846 58.7211 23.7296 54.6326C21.8187 56.9879 18.0412 61.9652 18.1301 62.8985C18.219 64.0539 30.2178 70.9866 31.8177 70.8088C33.1064 70.6755 36.3061 67.1203 37.7726 65.3871C36.795 68.0091 34.3508 73.3419 32.4398 73.8308C30.0401 74.4529 15.9969 65.9204 15.5525 63.6984C15.197 61.9208 19.5966 56.0102 21.863 53.2994C20.441 52.2328 19.5522 51.344 19.5522 50.8996C19.5522 48.7665 36.9728 14.5475 39.9058 14.903C40.528 14.9919 41.8612 15.4808 43.6388 16.2362C44.7498 14.6808 47.1496 11.3034 48.0828 10.2812C47.7273 11.97 46.7052 15.703 45.5053 17.0806C49.2382 18.8138 54.0378 21.3024 57.6819 23.5244C58.6596 21.969 61.6371 19.4804 63.0147 18.4582L59.4595 24.6354C61.5926 26.0575 63.0147 27.213 63.0147 27.8796C63.0147 29.7905 60.8371 33.479 59.7261 35.0344C60.2594 35.4789 60.7483 35.9677 61.1482 36.5454C88.2568 45.0335 88.6567 69.92 79.5465 85.8296C79.5465 81.5634 83.1461 73.2975 83.0572 67.8313C82.7906 53.0772 73.9914 42.767 62.7036 39.8784C62.9258 40.6784 63.0147 41.4338 62.9702 42.1004C62.9702 43.5225 62.437 44.8113 61.5926 45.9223C68.8364 47.0777 73.3248 56.0102 74.7024 60.3209C72.6582 56.3658 66.9255 48.2332 60.3928 47.2111C58.1263 49.2109 54.8377 50.3219 52.5712 50.0108C52.038 49.9219 51.5491 49.7886 51.0603 49.5664C49.016 53.5216 44.6609 61.6986 43.6832 62.8985C44.2609 60.4543 46.2163 54.1882 49.5493 48.6331C46.9274 46.5445 45.3275 42.6782 45.6386 40.6339L45.683 40.6784Z" fill="#5D57C5"/>
<path d="M45.5057 7.92397C46.3501 9.21273 57.549 15.0344 63.0152 17.7897C62.2152 15.8343 47.861 7.92397 47.5944 7.39069C47.3278 6.8574 49.0609 2.72446 49.6831 2.28006C50.3053 1.83566 67.9036 10.5904 68.1702 11.5681C68.3924 12.368 67.0147 16.9453 66.3037 19.1229C67.1925 18.5896 70.2145 12.4569 69.9478 11.3014C69.6812 10.146 51.1941 -0.43079 49.6831 0.013612C48.1721 0.458014 44.4391 6.32412 45.5057 7.92397Z" fill="#5D57C5"/>
</svg>