<?xml version="1.0" standalone="no"?>
<!DOCTYPE svg PUBLIC "-//W3C//DTD SVG 1.1//EN" "http://www.w3.org/Graphics/SVG/1.1/DTD/svg11.dtd">
<svg xmlns="http://www.w3.org/2000/svg" width="68" height="72" viewBox="0 0 68 72" fill="none">
<path d="M55.1647 51.2472L63.9429 60.6513C64.9605 61.6636 65.8619 62.7862 66.6305 63.9984C67.2405 64.886 67.5737 65.9345 67.5881 67.0115C67.6025 68.0884 67.2974 69.1455 66.7114 70.0491C66.2803 70.8551 65.5468 71.4569 64.6722 71.7223C63.7976 71.9877 62.8533 71.8951 62.047 71.4646C60.1973 70.1864 58.5038 68.6958 57.0011 67.0234C52.3567 62.5227 48.6247 57.1764 43.7637 52.9214C43.2892 52.4808 43.2577 52.544 42.3821 52.9365C29.6617 59.3725 12.5311 59.2732 4.10211 45.9757C0.042565 38.8783 -1.05718 30.4673 1.04113 22.5648C3.13943 14.6623 8.26681 7.90468 15.3125 3.75601C22.5093 -0.275619 32.0092 -1.5842 39.3692 2.44895C45.126 5.82358 49.4884 11.1432 51.6703 17.4494C54.6929 25.2556 54.5848 33.9274 51.3687 41.6559C50.7692 42.9816 50.0748 44.2755 49.6961 45.1591C49.4187 45.8064 50.8504 47.0482 51.2008 47.4171C52.1037 48.3672 54.7894 50.8455 55.1647 51.2472ZM25.213 48.0647C33.9259 49.0699 41.7231 42.1516 44.5352 34.338C47.4976 24.4092 40.6675 9.01184 29.1207 9.02714C19.7514 9.03957 10.885 16.9683 9.10087 25.9837C7.09073 36.1413 13.6639 48.9458 25.213 48.0647Z" fill="#5D57C5"/>
</svg>