<?xml version="1.0" standalone="no"?>
<!DOCTYPE svg PUBLIC "-//W3C//DTD SVG 1.1//EN" "http://www.w3.org/Graphics/SVG/1.1/DTD/svg11.dtd">
<svg xmlns="http://www.w3.org/2000/svg" width="262" height="227" viewBox="0 0 262 227" fill="none">
<g clip-path="url(#clip0_5444_43)">
<path d="M130.93 6.88304L41.6245 55.1705C21.002 66.3211 13.3235 92.0782 24.474 112.701L72.7615 202.006C83.912 222.629 109.669 230.307 130.292 219.157L219.597 170.869C240.22 159.719 247.898 133.962 236.748 113.339L188.46 24.0335C177.31 3.41104 151.553 -4.26748 130.93 6.88304Z" fill="#FBF3CC" stroke="#F04D26" stroke-width="3.60655" stroke-miterlimit="10"/>
<path d="M106.498 43.6688L85.7179 54.9044C56.2472 70.8392 45.2741 107.648 61.2089 137.118L72.4445 157.898C88.3792 187.369 125.188 198.342 154.658 182.407L175.438 171.171C204.909 155.237 215.882 118.428 199.947 88.9577L188.712 68.1778C172.777 38.7071 135.968 27.734 106.498 43.6688Z" fill="#F04D26" stroke="#F04D26" stroke-width="3.60655" stroke-miterlimit="10"/>
<path d="M258.977 119L19.9434 47.7412L2.24195 107.119L241.276 178.378L258.977 119Z" fill="#FBF3CC"/>
<path d="M242.468 180.616L0 108.305L18.718 45.5146L261.186 117.826L242.468 180.652V180.616ZM4.47212 105.888L240.016 176.108L256.678 120.206L21.1705 49.9868L4.47212 105.888Z" fill="#F04D26"/>
</g>
<defs>
<clipPath id="clip0_5444_43">
<rect width="261.186" height="226.095" fill="white"/>
</clipPath>
</defs>
</svg>