<?xml version="1.0" standalone="no"?>
<!DOCTYPE svg PUBLIC "-//W3C//DTD SVG 1.1//EN" "http://www.w3.org/Graphics/SVG/1.1/DTD/svg11.dtd">
<svg xmlns="http://www.w3.org/2000/svg" width="88" height="86" viewBox="0 0 88 86" fill="none">
<path d="M25.3875 83.4267C25.3875 83.4267 25.6628 83.2064 25.7179 83.1514V83.2615L25.3875 83.3716V83.4267Z" fill="#FBB042"/>
<path d="M0 59.0331C0.495614 58.7578 0.881122 58.4274 1.32167 58.097C5.56192 54.6827 8.86599 48.9006 10.2427 42.2924C11.8397 35.0234 11.0687 26.7632 8.26023 20.2651C13.4917 23.3489 21.9171 24.7256 27.3138 21.9171C32.7105 19.1087 36.7856 14.1525 39.3738 8.75585C40.4201 6.60818 41.2461 4.29532 41.5214 1.98246C41.5765 1.32164 41.6316 0.660819 41.5765 0H41.6316C43.559 5.50682 45.7066 11.2339 50.1671 15.1438C54.0219 18.4479 59.1433 19.9347 64.2646 20.21C69.386 20.4854 74.3972 19.6594 79.4084 18.7783L79.9591 18.4479C75.1681 24.5604 72.1945 32.3801 73.2958 39.9795C74.0668 45.3762 77.2056 50.5526 81.6111 53.6364C82.7675 54.4625 84.0341 55.0682 85.3007 55.5638C86.1267 55.8392 86.9527 56.1145 87.7788 56.2246C87.0078 56.1145 86.2919 55.9493 85.4659 55.9493C78.5824 55.6189 70.4322 59.4737 66.4673 64.595C62.0068 70.4322 60.4098 77.9766 60.575 85.2456C57.4361 83.2631 54.1321 81.3357 50.057 80.1793C43.2836 78.1969 34.7481 78.8026 28.6355 81.501C27.5892 81.9966 26.653 82.4371 25.7719 83.0979C24.6155 76.5999 21.4216 70.5424 17.0712 66.1369C12.6107 61.7315 6.82849 58.9781 0.936192 58.5375L0.05508 59.0882L0 59.0331Z" fill="#F04D26"/>
<path d="M19.3843 45.4882C19.3843 41.303 20.4856 37.3381 22.4681 33.8688C24.7259 29.959 28.1401 26.7099 32.2702 24.6724C35.4091 23.0754 38.9886 22.1943 42.7883 22.1943C46.588 22.1943 49.9471 23.0204 53.031 24.5072C56.3351 26.1042 59.1986 28.417 61.4013 31.2806C62.2824 32.437 63.1084 33.7587 63.8243 35.1354C65.4213 38.2192 66.2473 41.7436 66.2473 45.4331C66.2473 51.3254 63.9895 56.7772 60.3 60.8522L59.9145 61.2377C55.6742 65.7533 49.5616 68.5618 42.7332 68.5618C39.2088 68.5618 35.8497 67.7908 32.9311 66.4141C27.5894 63.936 23.239 59.5306 21.0363 54.0788C20.1001 51.3805 19.4393 48.4619 19.4393 45.3781L19.3843 45.4882Z" fill="#F9BF29"/>
</svg>