<?xml version="1.0" standalone="no"?>
<!DOCTYPE svg PUBLIC "-//W3C//DTD SVG 1.1//EN" "http://www.w3.org/Graphics/SVG/1.1/DTD/svg11.dtd">
<svg xmlns="http://www.w3.org/2000/svg" width="106" height="96" viewBox="0 0 106 96" fill="none">
<path d="M19.3308 71.3708C18.8864 66.5713 17.1088 61.8606 15.909 57.2388C14.398 51.4616 14.1313 45.4622 12.6204 39.6849C12.0427 37.4629 9.19848 37.9073 8.26524 39.5072C5.95435 43.4179 4.84334 47.9064 4.26561 52.4393C2.2658 59.0164 0.843724 65.7714 0.0882403 72.5707C-0.622803 78.7923 2.97685 86.836 10.3984 86.3472C18.4865 85.7695 19.9975 78.2146 19.3753 71.4153L19.3308 71.3708Z" fill="#244F24"/>
<path d="M11.8202 85.8573C11.6869 83.6353 11.598 80.0356 10.487 78.5691C10.3537 78.3469 10.1315 78.258 9.9093 78.2136C9.50934 77.6359 8.84274 78.2136 8.84274 79.1913C8.84274 79.2802 8.84274 79.4135 8.84274 79.5024C8.75386 80.169 8.70942 80.88 8.75386 81.5466C8.44278 86.1684 7.46509 91.4123 9.59822 94.9231C10.3093 96.0785 11.598 95.1897 11.6869 93.5899C11.8647 91.0124 11.9091 88.4348 11.6869 85.8573H11.8202Z" fill="#F04D26"/>
<path d="M51.1053 35.2879C50.3943 30.755 48.75 26.3554 47.95 21.8225C46.8835 15.8231 45.1503 10.1347 43.4172 4.31306C42.6172 1.64665 39.1953 2.53545 38.5732 4.71302C36.84 10.7125 35.6846 16.9785 34.9735 23.2446C34.7957 23.9112 34.5736 24.5334 34.3958 25.2C33.107 29.7773 30.7073 34.1324 30.5295 39.0209C30.3073 46.3091 35.1957 51.4197 42.6172 50.7975C50.4832 50.1754 52.1274 41.554 51.1497 35.2879H51.1053Z" fill="#244F24"/>
<path d="M77.3256 31.464C77.0145 26.8422 75.5925 22.2648 75.0147 17.6431C74.3481 12.488 73.0594 7.55514 71.1929 2.7556C70.8374 1.77791 70.1708 1.20019 69.4597 0.977988C68.9264 -0.133017 67.1933 -0.488538 66.6155 0.933549C66.4822 1.28907 66.3045 1.68903 66.1711 2.04455C65.8156 2.48896 65.5934 3.06668 65.5045 3.68884C62.1271 11.9992 58.7052 21.0205 58.5718 29.9974C58.483 36.4857 61.3271 44.485 68.7931 45.3738C76.1702 46.2626 77.7256 36.7524 77.3701 31.5084L77.3256 31.464Z" fill="#244F24"/>
<path d="M104.078 44.617C103.455 38.262 102.878 31.996 100.833 25.9076C99.989 23.419 95.6339 22.7968 94.7451 25.641C94.3007 27.0187 93.9007 28.4407 93.5452 29.8628C90.2122 38.4398 88.7901 47.2389 86.657 56.3048C84.8794 63.7707 84.8794 72.1255 93.8563 74.1697C101.989 76.0362 105.322 67.9925 105.5 61.5931C105.633 55.9937 104.611 50.2164 104.078 44.617Z" fill="#244F24"/>
<path d="M42.4399 51.286C42.3066 49.064 42.2178 45.5088 41.1068 43.9978C40.9734 43.7756 40.7512 43.6867 40.529 43.6423C40.129 43.0646 39.4625 43.6423 39.4625 44.62C39.4625 44.7089 39.4625 44.8422 39.4625 44.9311C39.3736 45.5977 39.3291 46.3087 39.3736 46.9753C39.0625 51.5971 38.0404 56.841 40.2179 60.3518C40.929 61.5073 42.2177 60.6185 42.3066 59.0186C42.5288 56.4411 42.5288 53.8635 42.3066 51.286H42.4399Z" fill="#F04D26"/>
<path d="M70.8813 44.0429C70.748 41.8208 70.6591 38.2212 69.5481 36.7547C69.4148 36.5325 69.1926 36.4436 68.9704 36.3991C68.5705 35.8214 67.9039 36.3991 67.9039 37.3768C67.9039 37.4657 67.9039 37.599 67.9039 37.6879C67.815 38.3545 67.7705 39.0655 67.815 39.7322C67.5039 44.3539 66.4818 49.5979 68.6593 53.1531C69.3704 54.3085 70.6592 53.4197 70.748 51.8199C70.9258 49.2424 70.9258 46.6648 70.748 44.0873L70.8813 44.0429Z" fill="#F04D26"/>
<path d="M97.7235 75.9931C97.5902 73.771 97.5013 70.1714 96.4348 68.7049C96.257 68.4827 96.0793 68.3938 95.8571 68.3493C95.4571 67.7716 94.7905 68.3493 94.7905 69.327C94.7905 69.4159 94.7905 69.5492 94.7905 69.6381C94.7016 70.3047 94.6572 71.0157 94.7016 71.6823C94.3905 76.3041 93.4129 81.5481 95.546 85.0589C96.257 86.2143 97.5458 85.3255 97.6346 83.7256C97.8124 81.1481 97.8568 78.5706 97.6346 75.9931H97.7235Z" fill="#F04D26"/>
</svg>